<?xml version="1.0" encoding="UTF-8" standalone="no"?>
<svg
   xmlns:dc="http://purl.org/dc/elements/1.1/"
   xmlns:cc="http://creativecommons.org/ns#"
   xmlns:rdf="http://www.w3.org/1999/02/22-rdf-syntax-ns#"
   xmlns:svg="http://www.w3.org/2000/svg"
   xmlns="http://www.w3.org/2000/svg"
   xmlns:sodipodi="http://sodipodi.sourceforge.net/DTD/sodipodi-0.dtd"
   xmlns:inkscape="http://www.inkscape.org/namespaces/inkscape"
   version="1.1"
   id="svg2"
   viewBox="0 0 128 128"
   height="128"
   width="128"
   inkscape:version="0.91 r13725"
   sodipodi:docname="robosnail.svg"
   inkscape:export-filename=".\robosnail-logo-wb.png"
   inkscape:export-xdpi="90"
   inkscape:export-ydpi="90">
  <sodipodi:namedview
     pagecolor="#000000"
     bordercolor="#666666"
     borderopacity="1"
     objecttolerance="10"
     gridtolerance="10"
     guidetolerance="10"
     inkscape:pageopacity="0"
     inkscape:pageshadow="2"
     inkscape:window-width="1920"
     inkscape:window-height="1137"
     id="namedview15"
     showgrid="true"
     inkscape:zoom="1.4142136"
     inkscape:cx="376.3156"
     inkscape:cy="40.037814"
     inkscape:window-x="-8"
     inkscape:window-y="-8"
     inkscape:window-maximized="1"
     inkscape:current-layer="layer3"
     inkscape:snap-bbox="true"
     inkscape:snap-object-midpoints="true"
     inkscape:snap-center="true"
     inkscape:object-paths="true"
     inkscape:snap-intersection-paths="true"
     inkscape:object-nodes="true"
     inkscape:snap-smooth-nodes="true"
     inkscape:snap-midpoints="true"
     showborder="false"
     inkscape:snap-global="true">
    <inkscape:grid
       type="xygrid"
       id="grid4859"
       visible="true"
       enabled="false"
       originx="1.5" />
  </sodipodi:namedview>
  <defs
     id="defs4">
    <filter
       style="color-interpolation-filters:sRGB;"
       inkscape:label="Invert"
       id="filter5164">
      <feColorMatrix
         type="hueRotate"
         values="180"
         result="color1"
         id="feColorMatrix5166" />
      <feColorMatrix
         values="-1 0 0 0 1 0 -1 0 0 1 0 0 -1 0 1 -0.21 -0.72 -0.07 2 0 "
         result="color2"
         id="feColorMatrix5168" />
    </filter>
  </defs>
  <metadata
     id="metadata7">
    <rdf:RDF>
      <cc:Work
         rdf:about="">
        <dc:format>image/svg+xml</dc:format>
        <dc:type
           rdf:resource="http://purl.org/dc/dcmitype/StillImage" />
        <dc:title></dc:title>
      </cc:Work>
    </rdf:RDF>
  </metadata>
  <g
     inkscape:groupmode="layer"
     id="layer3"
     inkscape:label="wb"
     style="display:inline">
    <text
       xml:space="preserve"
       style="font-style:normal;font-variant:normal;font-weight:normal;font-stretch:normal;font-size:165.66229248px;line-height:125%;font-family:Verdana;-inkscape-font-specification:'Verdana, Normal';text-align:start;letter-spacing:0px;word-spacing:0px;writing-mode:lr-tb;text-anchor:start;display:inline;fill:#ffffff;fill-opacity:1;stroke:none;stroke-width:1px;stroke-linecap:butt;stroke-linejoin:miter;stroke-opacity:1"
       x="147.23639"
       y="127.76115"
       id="text4802-9-3"
       sodipodi:linespacing="125%"><tspan
         sodipodi:role="line"
         id="tspan4804-8-4"
         x="147.23639"
         y="127.76115"
         style="font-style:normal;font-variant:normal;font-weight:normal;font-stretch:normal;font-size:165.66229248px;line-height:125%;font-family:Verdana;-inkscape-font-specification:'Verdana, Normal';text-align:start;writing-mode:lr-tb;text-anchor:start;fill:#ffffff;fill-opacity:1">brickify</tspan></text>
    <path
       inkscape:connector-curvature="0"
       style="color:#000000;clip-rule:nonzero;display:inline;overflow:visible;visibility:visible;opacity:1;isolation:auto;mix-blend-mode:normal;color-interpolation:sRGB;color-interpolation-filters:linearRGB;solid-color:#000000;solid-opacity:1;fill:#ffffff;fill-opacity:1;fill-rule:evenodd;stroke:none;stroke-width:1px;stroke-linecap:butt;stroke-linejoin:miter;stroke-miterlimit:4;stroke-dasharray:none;stroke-dashoffset:0;stroke-opacity:1;color-rendering:auto;image-rendering:auto;shape-rendering:auto;text-rendering:auto;enable-background:accumulate"
       d="m 23.886719,6.89453 a 17.5,17.5 0 0 0 -17.5000002,17.5 17.5,17.5 0 0 0 17.5000002,17.5 17.5,17.5 0 0 0 4.960937,-0.730469 c 3.95186,7.678304 6.253409,15.229127 7.683594,22.296876 A 20,20 0 0 0 24,81.999999 L 24,128 l 80,0 0,-46.000001 A 20,20 0 0 0 91.46875,63.458983 c 1.43021,-7.067207 3.732085,-14.617299 7.683594,-22.294922 a 17.5,17.5 0 0 0 4.960936,0.730469 17.5,17.5 0 0 0 17.5,-17.5 17.5,17.5 0 0 0 -17.5,-17.5 17.5,17.5 0 0 0 -17.499999,17.5 17.5,17.5 0 0 0 4.128907,11.28711 C 85.898167,44.872515 83.201895,53.906033 81.572266,62.103515 70.667252,63.022029 68.204011,69.999999 64,69.999999 c -4.204011,0 -6.667252,-6.97797 -17.572266,-7.896484 -1.629629,-8.197482 -4.325901,-17.231 -9.169922,-26.421875 a 17.5,17.5 0 0 0 4.128907,-11.28711 17.5,17.5 0 0 0 -17.5,-17.5 z m -1.744141,5.390625 a 10,10 0 0 1 10,10 10,10 0 0 1 -10,10 10,10 0 0 1 -10,-10 10,10 0 0 1 10,-10 z m 83.714842,0 a 10,10 0 0 1 10,10 10,10 0 0 1 -10,10 10,10 0 0 1 -9.999998,-10 10,10 0 0 1 9.999998,-10 z m -83.714842,9.214844 a 4.5,4.5 0 0 0 -4.5,4.5 4.5,4.5 0 0 0 4.5,4.5 4.5,4.5 0 0 0 4.5,-4.5 4.5,4.5 0 0 0 -4.5,-4.5 z m 83.714842,0 a 4.5,4.5 0 0 0 -4.5,4.5 4.5,4.5 0 0 0 4.5,4.5 4.5,4.5 0 0 0 4.5,-4.5 4.5,4.5 0 0 0 -4.5,-4.5 z M 37.662109,97.439452 C 41.305664,97.343742 51.3125,104.99998 64,105 78.5,105.00002 89.5,94.999999 91.5,97.999999 93.5,100.99999 81.5,115 64,115 46.5,115 34.5,101 36.5,97.999999 c 0.25,-0.375 0.641602,-0.546874 1.162109,-0.560547 z"
       id="circle4194-7" />
  </g>
  <g
     inkscape:groupmode="layer"
     id="layer4"
     inkscape:label="bw"
     style="display:none"
     sodipodi:insensitive="true">
    <text
       xml:space="preserve"
       style="font-style:normal;font-variant:normal;font-weight:normal;font-stretch:normal;font-size:165.66229248px;line-height:125%;font-family:Verdana;-inkscape-font-specification:'Verdana, Normal';text-align:start;letter-spacing:0px;word-spacing:0px;writing-mode:lr-tb;text-anchor:start;display:inline;fill:#000000;fill-opacity:1;stroke:none;stroke-width:1px;stroke-linecap:butt;stroke-linejoin:miter;stroke-opacity:1"
       x="147.23639"
       y="127.76115"
       id="text4802-9"
       sodipodi:linespacing="125%"><tspan
         sodipodi:role="line"
         id="tspan4804-8"
         x="147.23639"
         y="127.76115"
         style="font-style:normal;font-variant:normal;font-weight:normal;font-stretch:normal;font-size:165.66229248px;line-height:125%;font-family:Verdana;-inkscape-font-specification:'Verdana, Normal';text-align:start;writing-mode:lr-tb;text-anchor:start;fill:#000000;fill-opacity:1">brickify</tspan></text>
    <path
       style="color:#000000;clip-rule:nonzero;display:inline;overflow:visible;visibility:visible;opacity:1;isolation:auto;mix-blend-mode:normal;color-interpolation:sRGB;color-interpolation-filters:linearRGB;solid-color:#000000;solid-opacity:1;fill:#000000;fill-opacity:1;fill-rule:evenodd;stroke:none;stroke-width:1px;stroke-linecap:butt;stroke-linejoin:miter;stroke-miterlimit:4;stroke-dasharray:none;stroke-dashoffset:0;stroke-opacity:1;color-rendering:auto;image-rendering:auto;shape-rendering:auto;text-rendering:auto;enable-background:accumulate"
       d="M 23.886719,6.8945312 A 17.5,17.5 0 0 0 6.3867188,24.394531 a 17.5,17.5 0 0 0 17.5000002,17.5 17.5,17.5 0 0 0 4.960937,-0.730469 c 3.95186,7.678304 6.253409,15.229127 7.683594,22.296876 A 20,20 0 0 0 24,82 l 0,46 80,0 0,-46 A 20,20 0 0 0 91.46875,63.458984 c 1.43021,-7.067207 3.732085,-14.617299 7.683594,-22.294922 a 17.5,17.5 0 0 0 4.960936,0.730469 17.5,17.5 0 0 0 17.5,-17.5 17.5,17.5 0 0 0 -17.5,-17.4999998 17.5,17.5 0 0 0 -17.499999,17.4999998 17.5,17.5 0 0 0 4.128907,11.28711 C 85.898167,44.872516 83.201895,53.906034 81.572266,62.103516 70.667252,63.02203 68.204011,70 64,70 59.795989,70 57.332748,63.02203 46.427734,62.103516 44.798105,53.906034 42.101833,44.872516 37.257812,35.681641 a 17.5,17.5 0 0 0 4.128907,-11.28711 17.5,17.5 0 0 0 -17.5,-17.4999998 z m -1.744141,5.3906248 a 10,10 0 0 1 10,10 10,10 0 0 1 -10,10 10,10 0 0 1 -10,-10 10,10 0 0 1 10,-10 z m 83.714842,0 a 10,10 0 0 1 10,10 10,10 0 0 1 -10,10 10,10 0 0 1 -9.999998,-10 10,10 0 0 1 9.999998,-10 z M 22.142578,21.5 a 4.5,4.5 0 0 0 -4.5,4.5 4.5,4.5 0 0 0 4.5,4.5 4.5,4.5 0 0 0 4.5,-4.5 4.5,4.5 0 0 0 -4.5,-4.5 z m 83.714842,0 a 4.5,4.5 0 0 0 -4.5,4.5 4.5,4.5 0 0 0 4.5,4.5 4.5,4.5 0 0 0 4.5,-4.5 4.5,4.5 0 0 0 -4.5,-4.5 z M 37.662109,97.439453 C 41.305664,97.343742 51.3125,104.99998 64,105 c 14.5,2e-5 25.5,-10 27.5,-7 2,2.99999 -10,17 -27.5,17 -17.5,0 -29.5,-14 -27.5,-17 0.25,-0.375 0.641602,-0.546874 1.162109,-0.560547 z"
       id="circle4194"
       inkscape:connector-curvature="0" />
  </g>
</svg>
